<?xml version="1.0" encoding="utf-8"?>
<!-- Generator: Adobe Illustrator 28.2.0, SVG Export Plug-In . SVG Version: 6.00 Build 0)  -->
<svg version="1.1" id="Layer_1" xmlns="http://www.w3.org/2000/svg" xmlns:xlink="http://www.w3.org/1999/xlink" x="0px" y="0px"
	 viewBox="0 0 275 228" style="enable-background:new 0 0 275 228;" xml:space="preserve">
<style type="text/css">
	.st0{fill:#8FBAFF;}
</style>
<path class="st0" d="M-236.9,281.8c-1.3-0.2-3.2-1-3.2-1.4s-2.5-2.6-3.9-3.5c-2.6-1.7-3.5-2.9-3.9-5.9c-0.2-1-0.4-2.2-0.6-2.8
	c-0.2-0.5-0.4-1.3-0.5-1.7c-0.2-0.4-0.4-1.2-0.5-1.9c-2-6.9,3.2-18.4,18.7-41.5c15.1-22.6,33.7-47.1,78.5-103.6
	c24.5-30.9,32.4-41.1,43.2-56c8.4-11.6,19.8-28.5,19.3-28.7c-0.2-0.1-13.3,7.3-21.4,12.2c-39,23.2-80,51.3-138.8,95
	c-20.6,15.3-41.7,31.3-86.7,65.8c-33.3,25.5-51.7,39-65.2,47.9c-8.9,5.9-13.3,8.6-17,10.5c-0.9,0.4-2.8,1.5-4.4,2.3
	c-3.3,1.7-5.9,2.9-7.9,3.6c-0.8,0.2-2.7,1-4.2,1.8c-3.4,1.6-6.7,2.7-10,3.4c-1.9,0.4-3,0.5-5.2,0.6c-4.9,0-6.3-0.4-8.1-2.4
	c-0.6-0.6-1.8-1.7-2.7-2.3c-3.3-2.3-4-3.3-4.6-6.9c-0.2-1.3-0.8-3.4-1.1-4.8c-1.6-5.5-0.6-9.8,4.9-20.2c8.7-16.5,34.9-54.6,83.7-122
	c6.6-9.1,13.4-18.5,15.1-20.9s4.2-5.8,5.5-7.5s2.1-3,1.8-2.9c-4.1,2-16.7,9-25.7,14.1c-63.7,36.2-132.5,83.6-169.9,116.8
	c-5.3,4.7-6.2,5.8-5.4,6.3c0.9,0.5-2,2.4-3.7,2.4c-2.6,0-2.8-4.3-0.4-8.7c7.7-14.1,44.8-47.1,91.4-81.4
	c47.7-35.1,110.3-74.4,131.2-82.4c0.9-0.4,2.7-0.9,4-1.2c2.2-0.5,2.4-0.6,5.3-0.5c1.7,0.1,4.2,0.2,5.7,0.4c1.5,0.1,3.7,0.3,4.9,0.3
	c1.5,0,3.1,0.1,4.5,0.4c1.2,0.2,3.2,0.5,4.4,0.5c3.8,0.2,6.5,1.1,7.6,2.7c0.4,0.5,1,0.8,2.5,1.2c6,1.7,6,5.8,0,17.1
	c-4,7.5-14.2,23.5-20.1,31.5c-15.2,20.6-48,66.6-68.6,96c-0.9,1.3-1.5,2.3-1.4,2.2c0.2-0.1,7.7-5.8,16.8-12.8
	c28.8-22,40.9-31.3,53.1-40.5c77.7-58.8,133.8-97.5,181.8-125.2C-114,13.3-95.7,4.4-84.5,1.3c6-1.7,8.2-1.8,17.7-0.9
	c2.8,0.3,5,0.4,6.1,0.3c1.2-0.1,2.4,0,4.7,0.4c1.7,0.3,3.2,0.5,3.3,0.6c0.1,0.3,1,0.3,2.1,0.3c2.6,0,5.8,0.6,7.1,1.2
	c1.4,0.7,2.9,1.8,3.2,2.4c0.2,0.3,0.8,0.6,2.2,1c3.6,1,5.1,2.2,5.8,5c1.8,6.4-5.6,21.4-23.2,47c-12.4,18.1-23.9,33.1-59.5,77.9
	c-19.2,24.2-27.9,35.3-38.1,48.7c-7.2,9.4-15.6,20.8-15.5,20.9c0,0,1.9-1.3,4-2.9C-101.4,155.2-55,122.5-9.2,94
	c65-40.4,117.8-65.9,141-67.9c2.8-0.2,6.1-0.1,11.5,0.4c2.1,0.2,5.2,0.4,7,0.4c2.4,0,3.9,0.2,5.9,0.5c1.5,0.3,3.8,0.5,5.1,0.6
	c5.1,0.3,8.6,1.4,11.1,3.7c0.6,0.5,1.6,1.1,2.4,1.3c5,1.6,6.8,3.7,7.2,8.4c0.8,9.1-5.5,21.6-28.3,56.6
	c-10.7,16.5-14.1,22.3-12.5,21.2c0.2-0.1,1.1-0.5,2.2-0.9c1.9-0.7,3.3-1.3,4.1-1.6c0.2-0.1,1.5-0.6,2.9-1.2c5-2,23.6-9.7,24.6-10.2
	c0.2-0.1,1.9-0.8,4-1.7c2.1-0.9,6.6-2.8,10-4.3s7.9-3.4,10-4.3s3.9-1.6,4-1.7c0.2-0.1,1.9-0.8,4-1.7c2.1-0.9,3.9-1.7,4-1.7
	c0.4-0.2,23.7-10.1,30.6-13c4.1-1.7,8-3.4,8.7-3.7c5.4-2.3,24.7-10.2,31.9-13c1.2-0.5,2.4-0.9,2.5-1c0.6-0.3,7.9-3.1,14.2-5.5
	c3.9-1.5,7.5-2.9,7.9-3c0.4-0.2,4.6-1.6,9.2-3.3c20.2-7.2,32.3-10.4,40.8-11c1.8-0.1,7.5,0.2,10.7,0.6c1.2,0.1,3.8,0.3,5.9,0.3
	c2.8,0.1,4.4,0.2,6.4,0.6c1.5,0.3,3.5,0.5,4.5,0.6c5.3,0.2,9,1.4,11.1,3.5c0.8,0.8,1.4,1.1,2.8,1.5c3.4,1,5.2,2.5,6,5
	c0.9,2.9,0.3,6.1-3.1,15.7c-4.1,11.6-4.9,14.9-4.9,19.8c0,4.4,1.1,7.5,3.6,10.1c1,1.1,2.4,1.6,7.2,2.6l2.3,0.5l13.6-0.1
	c19.7-0.1,22.9-0.1,27.8,0.3c2.4,0.2,5.8,0.4,7.7,0.5c3,0.1,7.6,0.6,13.1,1.4c4.2,0.6,7.7,1.6,10.4,3.2l1.4,0.8l-0.6,0.7
	c-1.5,1.8-8.1,5.4-15.9,8.7c-9.7,4-15.3,5.4-27.1,6.9c-8.8,1.1-20.2,2-27.3,2.2c-2.1,0.1-4.8,0.1-6.1,0.2
	c-3.1,0.1-12.2-0.2-15.7-0.5c-1.5-0.2-4.1-0.5-5.8-0.7c-11-1.7-17.4-4.2-22.1-8.8c-0.7-0.6-1.9-1.6-2.7-2.2c-2.1-1.5-5-4.4-6.1-6.2
	c-1.2-2-2-4.2-2.7-7.5c-0.3-1.5-0.6-2.9-0.7-3.1c0-0.2-0.3-0.9-0.4-1.5c-0.2-0.6-0.3-1.2-0.4-1.3c-0.3-0.3-0.7-4.8-0.7-7.8
	c0-4.2,1.5-11,3.4-16c0.3-0.8,0.6-1.6,0.6-1.6c0-0.4-12,3.5-21.6,6.9c-4.2,1.5-7.8,2.8-7.9,2.8c-0.2,0.1-2.2,0.9-4.7,1.8
	s-4.9,1.8-5.3,2c-6,2.3-8.5,3.3-11.5,4.5c-13.8,5.6-17.2,7-20.2,8.2c-1.9,0.8-4.6,1.9-6,2.5s-3.5,1.5-4.7,2
	c-1.1,0.5-2.7,1.1-3.4,1.4c-0.7,0.3-1.7,0.7-2.3,1c-0.5,0.2-2.2,0.9-3.6,1.5s-2.8,1.2-3,1.3c-0.2,0.1-2.1,0.9-4.2,1.8
	c-2.1,0.9-3.9,1.6-4,1.7c-0.4,0.2-8.7,3.7-11.5,4.9c-1.1,0.4-8.4,3.6-8.5,3.7c-0.2,0.1-1.9,0.8-4,1.7c-3.5,1.5-5.6,2.4-7.5,3.2
	c-0.5,0.2-2.3,1-4.2,1.8c-1.8,0.8-3.5,1.5-3.8,1.6c-0.2,0.1-2.1,0.9-4.2,1.8c-2.1,0.9-3.9,1.7-4,1.7c-0.4,0.2-12.9,5.4-21.2,8.8
	c-2.6,1.1-5.9,2.4-7.3,3c-1.4,0.6-4.5,1.8-6.8,2.7s-4.6,1.8-5.1,2c-2.4,1-12.6,4.8-15.9,5.9c-17,6-26.8,8.4-35.6,8.6
	c-3.1,0.1-4,0-6.1-0.3c-3.2-0.5-4.5-1.1-6.5-3.1c-0.9-0.9-2.2-1.9-2.8-2.3c-2.9-1.7-4.3-3.8-5-7.4c-0.2-1.2-0.8-3.3-1.2-4.7
	c-1.5-4.9-1-10.1,1.6-16.2c3.3-7.5,6.5-12.9,18.5-31.4c10-15.4,15.7-24.7,19.7-32.3c1-2,2-3.7,2.1-3.9c0.2-0.3,0.2-0.3-0.9,0
	c-1.7,0.5-6.5,2.2-8.8,3.1c-7.3,2.9-26,11.9-38.2,18.5c-39,21.1-81.6,48-127,80.2c-27.3,19.3-46.2,33.4-86.2,63.8
	c-31.3,23.9-45.2,34.1-58,42.5c-8.9,5.9-10.2,6.6-20.2,11.9c-2.2,1.1-4.3,2.1-6,2.6c-0.8,0.2-2.5,1-3.9,1.7c-3,1.4-6.5,2.6-9.4,3.3
	C-230.3,282-234.7,282.2-236.9,281.8L-236.9,281.8z"/>
</svg>
