<?xml version="1.0" encoding="UTF-8"?><svg xmlns="http://www.w3.org/2000/svg" width="133" height="56.38" viewBox="0 0 133 56.38"><g isolation="isolate"><g id="Layer_1"><path d="M20.32,12.91c-.93,1.48-1.94,2.9-3.03,4.26-.59.74-1.2,1.47-1.84,2.17-.04.05-.08.09-.13.14-.26.93-.85,1.78-1.65,2.32-.11.07-.23.14-.35.21-.27.14-.57.26-.88.28-.26.23-.54.45-.81.66l.12.16c.37.74.59,1.58.47,2.4-.12.82-.6,1.61-1.34,1.97-.41.21-.97.25-1.29-.09-.03-.03-.05-.06-.07-.09-.15-.21-.2-.49-.24-.75-.04-.26-.08-.52-.12-.79-.06-.36-.11-.73-.17-1.09-.04-.29-.09-.59-.13-.89-.04-.26-.08-.56.08-.78.08-.12.21-.2.33-.28.68-.44,1.35-.87,2.02-1.31,0-.17.06-.34.12-.5.05-.14.1-.29.15-.43.29-.83.58-1.65.87-2.47.07-.19.14-.39.3-.51.12-.09.27-.12.42-.15.54-.12,1.07-.32,1.56-.58-.1-.11-.18-.24-.24-.38-.08-.19-.11-.41-.09-.62.03-.23.13-.45.3-.61.21-.19.49-.26.74-.37.56-.24,1.02-.66,1.49-1.05.13-.11.26-.21.4-.3.31-.22.67-.41,1.05-.41.32,0,1.31-.01,1.96-.11Z" fill="#f880b1" stroke-width="0"/><path d="M19.16,56.23c-1.85.32-3.8.11-5.59-.47-2.22-.72-4.24-1.96-6.1-3.38-.25-.19-.51-.4-.75-.61-.08-.07-.15-.14-.22-.22,1.18-3.04,2.09-6.18,2.5-9.4h0c.1-.75.17-1.5.21-2.25.04-.81.05-1.63.08-2.44.02-.62.04-1.24.1-1.86.81-.46,1.64-1.1,2.44-1.95.22-.52.48-1.03.75-1.52.98-1.76,2.23-3.36,3.53-4.91.56-.67,1.14-1.33,1.57-2.09.92-1.62,1.1-3.56,1.75-5.3.18-.49.4-.96.74-1.36.79-.95,2.21-1.31,3.36-.86.13.05.27.12.36.24.19.25.09.61,0,.92-.27.84-.44,1.71-.5,2.58,2.5-3.69,4.53-7.73,6.01-11.96.12-.09.26-.17.4-.23.3-.11.66-.1.9.11.42.35.28,1.01.15,1.53-.56,2.16-.54,4.42-.59,6.66-.03,1.1-.1,2.28-.65,3.21l.02.02c-.92,1.47-1.81,2.96-2.49,4.55-.64,1.51-1.09,3.11-1.78,4.6-.97,2.1-2.41,3.95-3.42,6.04-1.89,3.91-2.18,8.38-2.4,12.71-.13,2.54-.25,5.09-.37,7.63Z" fill="#f880b1" stroke-width="0"/><path d="M31.97,4.71c-.04.1-.08.2-.12.3-.43.99-1.89,2.59-1.89,2.59-.18.6-.38,1.2-.59,1.79-1.47,4.23-3.51,8.27-6.01,11.96.06-.88.23-1.75.5-2.58.1-.3.2-.67,0-.92-.09-.12-.23-.18-.36-.24-1.15-.45-2.57-.09-3.36.86-.33.4-.56.87-.74,1.36-.65,1.75-.83,3.68-1.75,5.3-.43.76-1,1.42-1.57,2.09-.95,1.13-1.87,2.28-2.68,3.51-.3.45-.58.92-.85,1.39-.27.49-.53,1-.75,1.52-.8.85-1.63,1.49-2.44,1.95-2.15,1.21-4.17,1.12-5.3.14-1.25-1.08-2.37-2.35-3.13-3.88-.76-1.53-1.13-3.34-.86-5.13.13-.83.49-1.75,1.22-2.05.52-.22,1.05-.05,1.56.17.17.07.33.15.49.23.83.38,1.73.63,2.64.73,1.03-.25,2.03-.64,2.99-1.14.1.63.19,1.25.28,1.88.05.3.1.62.31.84.15.16.36.23.58.25.24.01.5-.05.72-.16.74-.36,1.22-1.16,1.34-1.97.12-.82-.1-1.66-.47-2.4l-.12-.16c.28-.21.55-.43.81-.66.3-.02.6-.13.88-.28.98-.51,1.71-1.46,2-2.52.05-.04.09-.09.13-.14.63-.7,1.25-1.42,1.84-2.17,1.08-1.36,2.1-2.78,3.03-4.26,1.24-1.96,2.34-4.01,3.29-6.14h0c-.56-.23-.94-1.05-.77-1.69.06-.22.15-.43.27-.62.23-.38.57-.69.93-.95.54-.38,1.13-.65,1.67-1.01.73-.48,1.36-1.12,2.06-1.65.7-.52,1.52-.94,2.34-.86.04,0,.08,0,.11.02.92.14,1.66.92,1.94,1.87.26.89.15,1.9-.19,2.81Z" fill="#fda9ca" stroke-width="0"/><path d="M29.97,7.6c-.18.6-.38,1.2-.59,1.79-1.47,4.23-3.51,8.27-6.01,11.96.06-.88.23-1.75.5-2.58.1-.3.2-.67,0-.92-.09-.12-.23-.18-.36-.24-1.15-.45-2.57-.09-3.36.86-.33.4-.56.87-.74,1.36-.65,1.75-.83,3.68-1.75,5.3-.43.76-1,1.42-1.57,2.09-.95,1.13-1.87,2.28-2.68,3.51-.3.45-.58.92-.85,1.39-.27.49-.53,1-.75,1.52-.8.85-1.63,1.49-2.44,1.95-2.15,1.21-4.17,1.12-5.3.14-1.25-1.08-2.37-2.35-3.13-3.88-.76-1.53-1.13-3.34-.86-5.13.13-.83.49-1.75,1.22-2.05.52-.22,1.05-.05,1.56.17h0c-1.75,6.94,3.35,8.75,6.82,8.34,1.19-.14,2.27-1.22,3.26-2.77,1.89-2.96,3.44-7.61,4.83-10.62,2.13-4.59,5.18-2.33,6.81-5.91,1.63-3.58,1.08-6.85,1.08-6.85,1.8.97,4.29.55,4.29.55Z" mix-blend-mode="soft-light" opacity=".3" stroke-width="0"/><path d="M16.74,18.79c-2.66,2.68-2.21,3.52-4.2,4.53,0,0,1.16,4.19-2.37,4.34v-.03c.24.01.5-.05.71-.16.74-.36,1.22-1.16,1.34-1.97.12-.82-.1-1.66-.47-2.4l-.12-.16c.28-.21.55-.43.81-.66.3-.02.6-.13.88-.28.98-.51,1.71-1.46,2-2.52.05-.04.09-.09.13-.14.63-.7,1.25-1.42,1.84-2.17,1.08-1.36,2.1-2.78,3.03-4.26,1.24-1.96,2.35-4.01,3.3-6.14,0,0,.11.37,1.09.32,0,0-5.3,9.01-7.96,11.7Z" mix-blend-mode="soft-light" opacity=".3" stroke-width="0"/><path d="M10.54,37.94s-.63,0-1.26-.48c.02-.62.04-1.24.1-1.86.81-.46,1.64-1.1,2.44-1.95,0,0-.97,2.84-1.28,4.29Z" mix-blend-mode="soft-light" opacity=".3" stroke-width="0"/><path d="M20.61,32.03s.59-2.78,1.67-5.57c1.08-2.79,1.1-5.1,1.1-5.1,0,0,2.22,1.49,2.68,3.15,0,0-1.41-.21-2.41,1.98-.99,2.2-3.04,5.54-3.04,5.54Z" mix-blend-mode="soft-light" opacity=".3" stroke-width="0"/><path d="M31.97,4.71c-.12.19-.25.39-.39.58-.65.91-1.52,1.91-2.76,1.75-.62-.08-1.17-.38-1.74-.58-.3-.11-.61-.19-.94-.2-.34,0-.68.04-1.02.06-.57.03-1.2-.07-1.55-.56-.22-.31-.24-.74-.02-1.04.05-.07.12-.14.21-.19.23-.15.51-.12.75-.01.32.14.61.31.93.45.63.27,1.3.47,1.99.48.6.02,1.21-.09,1.74-.38.54-.29.95-.75,1.22-1.29.39-.79.43-1.66.27-2.51-.15-.4-.43-.81-.46-1.24.92.14,1.66.92,1.94,1.87.26.89.15,1.9-.19,2.81Z" mix-blend-mode="soft-light" opacity=".3" stroke-width="0"/><path d="M10.64,37.35c.53-3.83,2.85-7.1,5.25-10.02.61-.74,1.26-1.43,1.72-2.24.47-.81.63-1.76.92-2.66.46-1.34.82-2.78,1.68-3.94.3-.37.7-.69,1.17-.79-.46.13-.84.46-1.11.83-.79,1.18-1.12,2.61-1.54,3.95-.26.9-.42,1.87-.9,2.73-.47.85-1.13,1.56-1.73,2.3-2.41,2.89-4.71,6.07-5.46,9.84h0Z" fill="#e2428a" stroke-width="0"/><path d="M23.77,19.1c-.39,1.1-.21,2.29-.4,3.42-.17,1.15-.5,2.27-.87,3.36-.76,2.17-1.67,4.3-1.96,6.6.02-.58.08-1.15.19-1.72.53-2.84,1.92-5.44,2.43-8.27.24-1.1.12-2.35.61-3.39h0Z" fill="#e2428a" stroke-width="0"/><path d="M23.58,21.54c1.53.54,2.37,2.13,2.84,3.58-.85-1.3-1.52-2.69-2.84-3.58h0Z" fill="#e2428a" stroke-width="0"/><path d="M24.2,21.89c.43-1.01,1-1.98,1.47-2.96.43-.99.39-2.2,1.01-3.13-.43,1.05-.3,2.19-.75,3.24-.49,1.02-1.1,1.92-1.72,2.85h0Z" fill="#e2428a" stroke-width="0"/><path d="M26.01,18.33c.64-.17,1.34-.02,1.85.4-.66-.06-1.23-.18-1.85-.4h0Z" fill="#e2428a" stroke-width="0"/><path d="M9.22,41.88c.7.48,1.47.37,2.27.23.83-.08,1.62.22,2.36.48,1.45.63,3.11.71,4.5-.12-.31.24-.67.43-1.05.58-.76.27-1.6.34-2.39.15-1.14-.25-2.23-.92-3.4-.88-.38,0-.79.12-1.19.05-.4-.06-.79-.23-1.09-.49h0Z" fill="#e2428a" stroke-width="0"/><path d="M23.26,20.22c-.25.47-.59.92-1.11,1.1-.49.17-1.01-.02-1.34-.41-.14-.17-.23-.37-.29-.58-.11-.32-.09-.67,0-1,.1-.4.31-.89.61-1.28.14-.22.31-.41.53-.55.44-.28.98-.24,1.46-.1.24.06.51.14.68.33.17.19.17.45.13.68-.13.63-.38,1.26-.68,1.83Z" fill="#fda9ca" stroke-width="0"/><path d="M11.4,25.97c.03.32.04.7-.1,1-.14.28-.42.4-.71.45-.29.05-.65.1-.93-.03-.3-.14-.38-.44-.44-.74-.07-.34-.12-.7-.02-1.04.02-.07.05-.13.09-.19-.01-.03,0-.07.02-.1.37-.49,1.03-.61,1.53-.3h.01s.08.04.09.08c.03.02.06.04.09.07.23.22.33.51.37.82Z" fill="#fda9ca" stroke-width="0"/><path d="M13.92,20.49c-.03.19-.09.38-.15.56-.05.14-.1.28-.17.41,0,.02-.02.03-.03.04,0,.01,0,.03,0,.04-.05.12-.15.18-.27.19-.16.05-.32.01-.48-.01-.09,0-.19-.01-.28-.02-.22-.01-.44-.02-.65-.04-.17-.01-.33-.07-.41-.24-.06-.12-.04-.26-.02-.39.04-.18.09-.36.15-.53.11-.33.27-.66.51-.91.43-.45,1.23-.58,1.63,0,.18.26.22.6.17.91Z" fill="#fda9ca" stroke-width="0"/><path d="M17.16,14.86c-.13.3-.28.6-.48.86-.17.21-.39.33-.67.27-.28-.06-.52-.23-.81-.29-.28-.05-.56-.03-.83.05.03-.23.13-.45.3-.61.21-.19.49-.26.74-.37.56-.24,1.02-.66,1.49-1.05.17.06.32.18.38.37.08.26-.03.53-.13.76Z" fill="#fda9ca" stroke-width="0"/><path d="M14.68,16.78c.46.15.91.18,1.39.22.47.04.92.14,1.38-.04-.53.59-2.24.34-2.76-.18h0Z" fill="#e2428a" stroke-width="0"/><path d="M12.41,17.95c-.23.87-.49,1.74-.75,2.6l-.2.65c-.07.2-.09.34.09.47,1.12.84,2.58-.17,3.22-1.18.48-.73.66-1.68.39-2.54.6,1.3-.03,2.87-1.12,3.71-.72.6-1.88.88-2.66.21-.09-.08-.2-.2-.22-.36-.02-.15.03-.28.07-.39l.23-.64c.31-.85.62-1.7.96-2.54h0Z" fill="#e2428a" stroke-width="0"/><path d="M8.96,24.39c.34.78.32,1.71.48,2.51.3.88,1.45.44,1.95-.04.63-.55.9-1.39.74-2.21-.13-.83-.4-1.68-1.03-2.27.72.51,1.06,1.4,1.24,2.23.23.87-.08,1.86-.76,2.46-.6.6-2.05.99-2.34-.11-.13-.86-.04-1.72-.28-2.57h0Z" fill="#e2428a" stroke-width="0"/><path d="M28.5,1.27c-.1,1.18-1.38,2.12-2.53,1.85.74-.82,1.53-1.39,2.53-1.85h0Z" fill="#fff" mix-blend-mode="soft-light" opacity=".5" stroke-width="0"/><path d="M7.32,26.62c.33,1.2,1.48,2.07,2.63,2,2.56-.16,2.6-2.72,2.94-4.69.15-.89.73-1.53,1.73-1.24.31.07.41.05.54-.05.35-.31.44-1.02.6-1.48,1.26-3.67,4.87-5.63,6.8-8.85.66-1.03,1.18-2.14,1.6-3.31-.37,1.83-1.15,3.59-2.23,5.12-1.07,1.52-2.45,2.83-3.6,4.25-.76.94-1.43,1.94-1.78,3.05-.26.8-.45,2-1.53,2.11-.36.04-.66-.11-.94-.11-.08,0-.12.02-.18.06-.26.21-.35.92-.46,1.5-.22,1.23-.5,2.68-1.61,3.48-1.7,1.27-4.25.3-4.52-1.83h0Z" fill="#fff" mix-blend-mode="soft-light" opacity=".5" stroke-width="0"/><path d="M5.8,26.19c1.29,1.5,2.24,3.67,1.59,5.65-.14-2-.98-3.76-1.59-5.65h0Z" fill="#f880b1" stroke-width="0"/><path d="M31.07,47.94c-.94.18-1.72.18-2.37.01-.64-.17-1.15-.44-1.52-.8-.37-.36-.62-.73-.76-1.1-.14-.37-.18-.65-.11-.85.07-.2.22-.22.47-.07,1.91,1.22,3.79.54,5.64-2.02,1.86-2.56,3.76-5.85,5.72-9.85.21-.43.43-.86.67-1.31-1.41.02-2.64.4-3.67,1.16-.33.23-.55.23-.67,0-.12-.23-.08-.57.1-1.03.18-.46.53-.9,1.06-1.33,1.25-.84,2.69-1.17,4.34-1.01,2.3-4.7,4.78-8.2,7.44-10.52-2.76-.18-5.22,0-7.39.57-2.17.56-3.72,1.88-4.66,3.97-.23.49-.42.55-.57.18-.15-.37-.15-1-.01-1.9.14-.89.53-1.87,1.17-2.92.64-1.05,1.63-2.01,2.98-2.87,1.35-.86,3.15-1.46,5.42-1.79,3.83-.25,7.52.07,11.09.94,2.53.54,4.73.81,6.6.8,1.87,0,3.19-.76,3.94-2.25.11-.21.26-.29.44-.22.18.07.31.24.39.53.08.29.05.65-.1,1.1-1.08,2.43-3.06,3.81-5.93,4.15-2.87.34-6.04.32-9.52-.04-.53-.03-1.06-.07-1.6-.12-2.22,2.25-4.21,5.88-5.99,10.89.97.18,1.82.26,2.56.23.74-.02,1.28-.27,1.63-.73.15-.2.26-.25.34-.15.08.1.12.28.12.54s-.06.55-.18.85c-.12.3-.33.57-.63.8-.48.34-1.12.53-1.92.54-.8.02-1.71-.03-2.71-.15-1.38,3.68-2.99,7.03-4.83,10.06-1.84,3.03-4.17,4.93-7,5.7Z" fill="#f880b1" stroke-width="0"/><path d="M52.35,39.86c-1-.16-1.62-.67-1.85-1.5-.23-.84-.16-1.76.2-2.77.36-1.01.94-1.84,1.72-2.5-1.17-.62-1.77-1.4-1.82-2.33-.05-.93.23-1.71.85-2.35.62-.64,1.33-.84,2.13-.59.38.18.59.47.64.87.05.4-.03.82-.25,1.24.69.44,1.25,1.02,1.69,1.72.44.71.51,1.39.21,2.04-.41.74-.73,1.39-.95,1.95-.22.56-.2.9.06,1.01.49.1,1.06-.21,1.71-.91.65-.71,1.24-1.57,1.76-2.6.53-1.03.85-1.97.99-2.85.05-.25.16-.4.33-.46.17-.06.33,0,.48.15.15.16.21.44.17.85-.31,2.18-1.22,4.25-2.73,6.21-1.51,1.95-3.29,2.89-5.35,2.81Z" fill="#f880b1" stroke-width="0"/><path d="M61.15,39.86c-2.18,0-3.32-1.15-3.41-3.46-.09-2.31.63-4.56,2.17-6.76,1.54-2.2,3.69-3.35,6.47-3.45,1.36.15,2.11.87,2.23,2.18s-.32,2.49-1.33,3.56c-1.01,1.07-2.56,1.32-4.64.76-.35.85-.53,1.61-.54,2.28-.02.67.19,1.09.62,1.27,1.26.33,2.62-.23,4.05-1.69,1.44-1.45,2.7-3.21,3.78-5.26.13-.28.28-.39.46-.34.17.05.3.21.38.47.08.26.06.58-.07.96-.76,1.72-2,3.74-3.73,6.04-1.73,2.3-3.87,3.45-6.42,3.45ZM66.86,28.45c-.67,0-1.32.29-1.95.86-.62.58-1.17,1.26-1.65,2.07.77.2,1.45.17,2.03-.09.58-.25,1.04-.6,1.38-1.05.34-.44.53-.85.57-1.23.04-.38-.09-.57-.38-.57Z" fill="#f880b1" stroke-width="0"/><path d="M75.39,36.36c-1.36,2.33-2.99,3.5-4.88,3.5-2.48,0-3.72-1.14-3.73-3.42,0-2.28.83-4.56,2.53-6.84,1.69-2.27,3.84-3.41,6.45-3.41.89,0,1.52.25,1.9.76.38.51.58,1.12.62,1.82.36-.36.76-.68,1.21-.96.56-.33,1.05-.46,1.48-.38.43.07.73.25.91.54.18.29.17.58-.02.87-.44.64-.93,1.5-1.45,2.57-.53,1.08-.91,2.07-1.15,2.98-.24.91-.14,1.43.31,1.56.61.02,1.21-.39,1.81-1.22.6-.83,1.13-1.63,1.6-2.39.47-.76.92-1.37,1.35-1.81.43-.44.66-.41.67.09,0,.5-.35,1.54-1.08,3.1-.73,1.57-1.67,2.94-2.81,4.11-1.14,1.17-2.45,1.62-3.93,1.34-1.05-.34-1.64-1.29-1.77-2.83ZM72.13,35.92c.64-.13,1.36-.68,2.17-1.65.8-.97,1.52-1.95,2.14-2.93.18-.38.39-.75.64-1.11.1-.48.12-.89.06-1.23-.06-.34-.24-.55-.55-.62-.95-.13-1.84.17-2.66.91-.82.74-1.49,1.63-2,2.67-.51,1.04-.77,1.96-.78,2.76,0,.8.32,1.19.97,1.19Z" fill="#f880b1" stroke-width="0"/><path d="M84.16,39.12c-.13.66-.43,1.09-.9,1.29-.47.21-.92.15-1.34-.17-.43-.32-.67-.93-.71-1.84.07-3.37.87-6.43,2.4-9.19,1.54-2.76,3-4.69,4.4-5.79.9-.69,1.68-1.06,2.34-1.12.66-.06,1.11.05,1.37.31.25.26.23.53-.06.81-.71.56-1.52,1.52-2.45,2.88-.93,1.36-1.81,2.93-2.65,4.71,1.28-1.61,2.59-2.67,3.93-3.19,1.34-.52,2.48-.41,3.41.31.84.79,1.1,1.69.78,2.7-.32,1.01-.96,1.88-1.91,2.61-.95.73-1.96,1.06-3.03.97.23,1.53,1.03,2.23,2.39,2.09.77-.13,1.46-.65,2.06-1.56.6-.91,1.12-1.85,1.58-2.82.45-.97.71-1.61.78-1.92.15-.38.37-.56.67-.55.3,0,.44.24.44.7,0,.69-.29,1.83-.87,3.42-.58,1.59-1.44,3.02-2.56,4.27-1.13,1.26-2.62,1.83-4.5,1.71-1.38-.23-2.31-.94-2.78-2.13-.48-1.19-.65-2.43-.52-3.71-1.15,1.76-1.89,3.48-2.22,5.17-.02,0-.02,0-.02.02ZM91.89,29.09c-.33-.21-.81-.11-1.45.32-.64.43-1.34,1.08-2.09,1.95.3.48.69.68,1.18.62.49-.07.97-.29,1.44-.67.47-.38.8-.78,1.01-1.21.21-.43.18-.76-.09-1.01Z" fill="#f880b1" stroke-width="0"/><path d="M96.52,39.19c-1.31-.33-2-1.29-2.07-2.88-.07-1.59.39-3.32,1.36-5.17.97-1.86,2.32-3.34,4.04-4.46.57-.31,1.08-.43,1.5-.37.43.07.73.24.9.52.17.28.16.58-.04.89-.33.46-.74,1.13-1.23,2-.49.87-.96,1.77-1.4,2.71s-.75,1.74-.91,2.41c-.16.67-.07,1.05.27,1.13.71.02,1.42-.48,2.16-1.49.73-1.01,1.35-2.01,1.86-2.99.69-1.51,1.73-2.73,3.13-3.67.56-.33,1.05-.46,1.48-.38.43.07.73.25.91.54.18.29.17.58-.02.87-.44.64-.93,1.5-1.47,2.57-.53,1.08-.92,2.07-1.15,2.98-.23.91-.12,1.43.32,1.56.61.02,1.21-.39,1.81-1.22.6-.83,1.15-1.72,1.65-2.66.5-.94.79-1.57.87-1.88.15-.38.37-.56.65-.55.29,0,.43.24.43.7,0,.69-.37,1.82-1.1,3.39-.73,1.57-1.66,2.94-2.8,4.11-1.13,1.17-2.45,1.62-3.94,1.34-1.08-.36-1.68-1.36-1.77-2.98-.72.99-1.54,1.77-2.46,2.35-.92.58-1.91.79-2.98.63Z" fill="#f880b1" stroke-width="0"/><path d="M110.2,40.1c-.43.13-.85.06-1.27-.22-.42-.28-.69-.77-.83-1.48-.48-4.14.85-7.93,3.99-11.38.8-.72,1.58-1.16,2.34-1.31.76-.15,1.32-.11,1.7.11.38.22.41.53.1.92-1.74,1.91-3.02,4.06-3.84,6.45.97-1.49,2.07-2.84,3.29-4.04,1.22-1.2,2.45-2.02,3.68-2.46.71-.21,1.32-.16,1.84.17.52.33.87.76,1.07,1.28.2.53.18.98-.05,1.36-.02.03-.03.07-.05.1-.3.36-.74,1.05-1.33,2.07,1.94-2.48,4-4.14,6.18-4.98.71-.21,1.32-.16,1.84.17.52.33.87.76,1.07,1.28.2.53.18.98-.05,1.36-.16.23-.44.69-.84,1.37-.39.68-.78,1.43-1.17,2.24-.39.81-.64,1.52-.75,2.13-.12.61.03.94.44,1.01.61,0,1.23-.48,1.86-1.44.63-.96,1.21-1.97,1.74-3.04.53-1.07.83-1.73.92-2,.09-.26.27-.37.53-.31.26.06.39.39.38,1.01,0,.62-.38,1.69-1.12,3.22-.74,1.53-1.69,2.95-2.85,4.26-1.16,1.31-2.5,1.95-4.03,1.9-1.23-.16-1.93-.86-2.09-2.08-.16-1.22.02-2.63.57-4.21.54-1.58,1.26-2.99,2.17-4.23-1.61,1.12-3.05,2.64-4.34,4.56-1.28,1.92-1.88,3.6-1.8,5.03.02.05.02.09.02.12-.02.38-.25.64-.7.8-.45.16-.97.16-1.56,0-.59-.16-1.1-.51-1.52-1.07-.42-.56-.6-1.36-.55-2.41.26-2.27,1.07-4.44,2.41-6.53-1.49,1.33-2.88,2.93-4.15,4.79-1.27,1.86-2.06,3.26-2.35,4.2v.1c-.02.07-.03.13-.05.2v.05c-.15.49-.44.8-.86.94Z" fill="#f880b1" stroke-width="0"/></g></g></svg>