<?xml version="1.0" encoding="UTF-8"?><svg xmlns="http://www.w3.org/2000/svg" width="32.16" height="56.12" viewBox="0 0 32.16 56.12"><defs><style>.cls-1{isolation:isolate;}.cls-2{fill:#e2428a;}.cls-2,.cls-3,.cls-4,.cls-5,.cls-6{stroke-width:0px;}.cls-3{opacity:.3;}.cls-3,.cls-6{mix-blend-mode:soft-light;}.cls-4{fill:#f880b1;}.cls-5{fill:#fda9ca;}.cls-6{fill:#fff;opacity:.5;}</style></defs><g class="cls-1"><g id="Layer_1"><path class="cls-4" d="M20.22,12.86c-.93,1.47-1.93,2.89-3.01,4.24-.59.74-1.2,1.46-1.83,2.16-.04.05-.08.09-.13.14-.26.93-.85,1.77-1.64,2.31-.11.07-.22.14-.34.21-.27.14-.57.26-.87.28-.26.23-.53.45-.81.66l.12.16c.37.74.58,1.57.47,2.39-.11.82-.59,1.6-1.33,1.97-.41.2-.97.25-1.29-.09-.03-.03-.05-.06-.07-.09-.15-.21-.2-.49-.24-.75-.04-.26-.08-.52-.12-.78-.06-.36-.11-.73-.17-1.09-.04-.29-.09-.59-.13-.88-.04-.26-.07-.56.07-.78.08-.12.21-.2.33-.28.67-.44,1.35-.87,2.01-1.3,0-.17.06-.34.12-.5.05-.14.1-.28.15-.43.29-.82.57-1.64.86-2.46.06-.19.14-.39.3-.5.12-.09.27-.12.42-.15.54-.12,1.06-.32,1.55-.58-.1-.11-.18-.24-.24-.38-.08-.19-.11-.41-.09-.61.03-.23.13-.45.3-.6.21-.19.49-.26.74-.37.56-.24,1.01-.66,1.49-1.04.13-.11.26-.21.4-.3.31-.22.67-.41,1.05-.41.32,0,1.3-.01,1.95-.11Z"/><path class="cls-4" d="M19.07,55.97c-1.85.32-3.78.11-5.57-.47-2.21-.72-4.23-1.95-6.07-3.36-.25-.19-.51-.39-.75-.61-.08-.07-.15-.14-.22-.21,1.18-3.03,2.08-6.15,2.49-9.36h0c.1-.74.17-1.49.21-2.24.04-.81.05-1.62.08-2.43.02-.62.04-1.23.1-1.85.8-.46,1.63-1.1,2.43-1.94.22-.51.48-1.02.75-1.51.98-1.76,2.22-3.35,3.51-4.88.56-.66,1.13-1.32,1.56-2.08.92-1.61,1.1-3.54,1.75-5.28.18-.48.4-.96.73-1.36.79-.94,2.2-1.3,3.34-.85.13.05.27.12.36.23.19.25.09.61,0,.91-.27.83-.44,1.7-.49,2.57,2.49-3.67,4.51-7.69,5.98-11.91.12-.09.26-.17.4-.23.3-.11.66-.1.9.11.41.35.28,1,.15,1.52-.55,2.15-.54,4.4-.59,6.63-.03,1.1-.1,2.27-.64,3.19l.02.02c-.91,1.46-1.8,2.94-2.48,4.53-.64,1.51-1.08,3.1-1.77,4.58-.97,2.09-2.4,3.94-3.4,6.01-1.89,3.89-2.17,8.34-2.39,12.66-.13,2.53-.25,5.06-.37,7.6Z"/><path class="cls-5" d="M31.83,4.69c-.04.1-.08.2-.12.3-.42.98-1.88,2.58-1.88,2.58-.18.6-.38,1.19-.59,1.78-1.46,4.22-3.49,8.23-5.98,11.91.06-.87.22-1.74.49-2.57.1-.3.2-.66,0-.91-.09-.12-.22-.18-.36-.23-1.14-.45-2.55-.09-3.34.85-.33.4-.55.87-.73,1.36-.65,1.74-.83,3.67-1.75,5.28-.43.76-1,1.41-1.56,2.08-.94,1.12-1.86,2.27-2.67,3.5-.3.45-.58.91-.84,1.39-.27.49-.52,1-.75,1.51-.8.85-1.63,1.49-2.43,1.94-2.14,1.2-4.15,1.11-5.28.14-1.24-1.08-2.36-2.34-3.12-3.87-.76-1.53-1.13-3.33-.85-5.1.13-.82.49-1.74,1.21-2.04.52-.21,1.05-.05,1.55.17.17.07.33.15.49.22.83.38,1.72.63,2.63.73,1.03-.25,2.02-.64,2.98-1.14.1.62.19,1.25.28,1.87.05.3.1.62.31.84.15.16.36.23.57.24.24.01.5-.05.71-.16.74-.36,1.22-1.15,1.33-1.97.12-.81-.1-1.65-.47-2.39l-.12-.16c.28-.21.55-.43.81-.66.3-.02.6-.13.87-.28.97-.51,1.7-1.46,1.99-2.51.04-.04.09-.09.13-.14.63-.7,1.24-1.42,1.83-2.16,1.08-1.35,2.09-2.77,3.01-4.24,1.24-1.95,2.33-3.99,3.28-6.11h0c-.56-.22-.94-1.05-.77-1.68.06-.22.15-.42.27-.61.23-.38.57-.69.92-.94.53-.38,1.12-.64,1.67-1,.72-.48,1.35-1.12,2.05-1.64.7-.52,1.52-.94,2.33-.86.04,0,.08,0,.11.02.91.14,1.65.92,1.93,1.86.26.89.15,1.89-.19,2.8Z"/><path class="cls-3" d="M29.83,7.57c-.18.6-.38,1.19-.59,1.78-1.46,4.22-3.49,8.23-5.98,11.91.06-.87.22-1.74.49-2.57.1-.3.2-.66,0-.91-.09-.12-.22-.18-.36-.23-1.14-.45-2.55-.09-3.34.85-.33.4-.55.87-.73,1.36-.65,1.74-.83,3.67-1.75,5.28-.43.76-1,1.41-1.56,2.08-.94,1.12-1.86,2.27-2.67,3.5-.3.45-.58.91-.84,1.39-.27.49-.52,1-.75,1.51-.8.85-1.63,1.49-2.43,1.94-2.14,1.2-4.15,1.11-5.28.14-1.24-1.08-2.36-2.34-3.12-3.87-.76-1.53-1.13-3.33-.85-5.1.13-.82.49-1.74,1.21-2.04.52-.21,1.05-.05,1.55.17h0c-1.74,6.9,3.33,8.71,6.79,8.3,1.19-.14,2.26-1.22,3.24-2.76,1.88-2.95,3.42-7.58,4.81-10.57,2.12-4.57,5.15-2.32,6.78-5.88,1.63-3.56,1.08-6.81,1.08-6.81,1.79.96,4.27.55,4.27.55Z"/><path class="cls-3" d="M16.67,18.71c-2.64,2.67-2.2,3.51-4.18,4.51,0,0,1.15,4.18-2.36,4.32v-.03c.24.01.49-.05.71-.16.74-.36,1.22-1.15,1.33-1.97.12-.81-.1-1.65-.47-2.39l-.12-.16c.28-.21.55-.43.81-.66.3-.02.6-.13.87-.28.97-.51,1.7-1.46,1.99-2.51.04-.04.09-.09.13-.14.63-.7,1.24-1.42,1.83-2.16,1.08-1.35,2.09-2.77,3.01-4.24,1.24-1.95,2.33-4,3.28-6.11,0,0,.1.37,1.08.32,0,0-5.28,8.97-7.92,11.64Z"/><path class="cls-3" d="M10.49,37.77s-.63,0-1.25-.48c.02-.62.04-1.23.1-1.85.8-.46,1.63-1.1,2.43-1.94,0,0-.96,2.82-1.28,4.27Z"/><path class="cls-3" d="M20.51,31.88s.59-2.77,1.66-5.55c1.07-2.77,1.09-5.08,1.09-5.08,0,0,2.21,1.48,2.67,3.14,0,0-1.41-.21-2.4,1.98-.99,2.19-3.03,5.51-3.03,5.51Z"/><path class="cls-3" d="M31.83,4.69c-.12.19-.25.39-.38.57-.65.9-1.51,1.9-2.74,1.74-.61-.08-1.16-.37-1.74-.58-.3-.11-.61-.19-.93-.2-.34,0-.68.04-1.01.06-.56.03-1.19-.07-1.54-.56-.22-.31-.24-.74-.02-1.04.05-.07.12-.14.2-.19.23-.15.5-.12.75-.01.31.13.61.31.92.45.63.27,1.3.46,1.98.48.6.02,1.2-.09,1.73-.38.54-.29.95-.74,1.22-1.29.39-.78.43-1.66.27-2.49-.15-.4-.43-.81-.45-1.24.91.14,1.65.92,1.93,1.86.26.89.15,1.89-.19,2.8Z"/><path class="cls-2" d="M10.6,37.18c.53-3.81,2.84-7.07,5.22-9.97.6-.73,1.26-1.42,1.71-2.23.47-.8.62-1.75.92-2.65.46-1.34.82-2.77,1.68-3.92.3-.37.7-.68,1.17-.79-.46.13-.83.46-1.11.83-.79,1.18-1.11,2.6-1.53,3.93-.26.9-.42,1.86-.9,2.71-.47.85-1.13,1.55-1.72,2.29-2.4,2.88-4.69,6.04-5.44,9.79h0Z"/><path class="cls-2" d="M23.66,19.01c-.39,1.1-.21,2.28-.4,3.41-.17,1.15-.5,2.26-.87,3.35-.76,2.16-1.66,4.28-1.95,6.57.02-.57.08-1.15.19-1.71.53-2.82,1.91-5.41,2.42-8.24.23-1.1.11-2.34.61-3.37h0Z"/><path class="cls-2" d="M23.47,21.44c1.52.54,2.36,2.12,2.83,3.56-.84-1.3-1.51-2.68-2.83-3.56h0Z"/><path class="cls-2" d="M24.09,21.79c.42-1.01,1-1.97,1.46-2.95.43-.98.39-2.19,1-3.12-.42,1.04-.3,2.18-.75,3.23-.49,1.01-1.09,1.92-1.72,2.84h0Z"/><path class="cls-2" d="M25.89,18.25c.63-.16,1.33-.02,1.84.4-.66-.06-1.22-.18-1.84-.4h0Z"/><path class="cls-2" d="M9.17,41.69c.7.47,1.47.37,2.26.22.83-.08,1.61.22,2.35.48,1.45.62,3.09.7,4.48-.12-.31.24-.67.43-1.04.57-.76.27-1.6.34-2.38.15-1.14-.25-2.21-.91-3.38-.88-.37,0-.78.12-1.19.05-.4-.06-.78-.23-1.08-.49h0Z"/><path class="cls-5" d="M23.16,20.13c-.25.47-.58.92-1.1,1.1-.48.17-1.01-.02-1.33-.41-.14-.17-.23-.37-.29-.58-.11-.32-.09-.66,0-1,.1-.4.31-.89.61-1.28.14-.22.31-.41.53-.55.43-.28.98-.23,1.45-.1.23.06.51.14.68.33.17.19.17.44.12.68-.13.63-.38,1.25-.67,1.82Z"/><path class="cls-5" d="M11.35,25.85c.03.32.04.7-.1.99-.13.28-.42.4-.71.45-.29.05-.65.1-.93-.03-.3-.13-.38-.44-.44-.74-.07-.34-.12-.69-.02-1.03.02-.07.05-.13.09-.19-.01-.03,0-.07.02-.1.37-.49,1.03-.61,1.53-.3h.01s.08.04.09.08c.03.02.06.04.09.07.23.21.33.51.36.81Z"/><path class="cls-5" d="M13.85,20.4c-.03.19-.09.38-.15.56-.05.14-.1.28-.17.4,0,.02-.02.03-.03.04,0,.01,0,.03,0,.04-.05.12-.15.18-.27.19-.15.05-.32.01-.48-.01-.09,0-.19-.01-.28-.02-.22-.01-.44-.02-.65-.04-.17-.01-.33-.07-.4-.24-.06-.12-.04-.26-.02-.39.04-.18.09-.36.15-.53.11-.33.26-.65.51-.9.43-.44,1.22-.57,1.62,0,.18.26.22.6.17.91Z"/><path class="cls-5" d="M17.08,14.79c-.13.3-.28.6-.48.86-.17.21-.39.33-.66.27-.28-.06-.52-.23-.8-.29-.27-.05-.56-.03-.83.05.03-.23.13-.45.3-.6.21-.19.49-.26.74-.37.56-.24,1.01-.66,1.49-1.04.17.06.32.18.38.36.08.26-.03.53-.13.76Z"/><path class="cls-2" d="M14.62,16.7c.46.15.91.18,1.38.22.47.04.91.14,1.37-.04-.53.59-2.23.34-2.75-.18h0Z"/><path class="cls-2" d="M12.35,17.87c-.23.87-.49,1.73-.75,2.59l-.2.64c-.07.2-.09.33.09.47,1.12.84,2.57-.17,3.2-1.17.48-.73.65-1.67.39-2.53.6,1.29-.03,2.85-1.11,3.69-.71.6-1.87.87-2.65.21-.09-.08-.2-.2-.21-.36-.02-.15.03-.28.06-.38l.23-.64c.3-.85.61-1.69.95-2.53h0Z"/><path class="cls-2" d="M8.91,24.28c.33.78.32,1.7.48,2.49.3.88,1.45.44,1.94-.04.62-.54.89-1.39.74-2.2-.13-.83-.4-1.67-1.02-2.26.71.51,1.06,1.39,1.23,2.22.23.86-.08,1.85-.76,2.44-.6.6-2.04.98-2.33-.11-.13-.86-.04-1.71-.28-2.56h0Z"/><path class="cls-6" d="M28.37,1.26c-.1,1.18-1.37,2.11-2.52,1.84.73-.82,1.52-1.39,2.52-1.84h0Z"/><path class="cls-6" d="M7.28,26.49c.32,1.19,1.47,2.06,2.62,1.99,2.54-.16,2.59-2.71,2.93-4.67.15-.89.73-1.53,1.72-1.24.31.07.41.05.54-.05.34-.31.43-1.02.6-1.48,1.25-3.66,4.85-5.61,6.76-8.81.65-1.02,1.18-2.13,1.6-3.29-.36,1.82-1.14,3.57-2.22,5.1-1.07,1.51-2.44,2.81-3.58,4.23-.75.93-1.42,1.93-1.77,3.04-.26.79-.45,1.99-1.52,2.1-.35.04-.66-.11-.93-.11-.08,0-.12.02-.18.06-.26.21-.35.91-.46,1.49-.21,1.23-.5,2.66-1.61,3.46-1.7,1.27-4.23.29-4.5-1.82h0Z"/><path class="cls-4" d="M5.77,26.07c1.29,1.49,2.23,3.65,1.58,5.62-.14-1.99-.98-3.75-1.58-5.62h0Z"/></g></g></svg>