<?xml version="1.0" encoding="UTF-8"?><svg xmlns="http://www.w3.org/2000/svg" viewBox="0 0 98.5 41.56"><defs><style>.cls-1{isolation:isolate;}.cls-2{fill:#e2428a;}.cls-2,.cls-3,.cls-4,.cls-5,.cls-6,.cls-7{stroke-width:0px;}.cls-3{fill:#f880b1;}.cls-4{fill:#fda9ca;}.cls-5{fill:#fff;mix-blend-mode:soft-light;opacity:.5;}.cls-6{fill:#ff94c0;}.cls-7{fill:#f467a7;}</style></defs><g class="cls-1"><g id="Layer_1"><path class="cls-3" d="M22.9,35.4c-.7.1-1.3.1-1.8,0s-.9-.3-1.1-.6-.5-.5-.6-.8-.1-.5-.1-.6.2-.2.4,0c1.4.9,2.8.4,4.2-1.5,1.4-1.9,2.8-4.3,4.2-7.3.2-.3.3-.6.5-1-1,0-2,.3-2.7.9-.2.2-.4.2-.5,0s-.1-.4.1-.8.4-.7.8-1c.9-.6,2-.9,3.2-.8,1.7-3.5,3.5-6.1,5.5-7.8-2-.1-3.9,0-5.5.4s-2.8,1.4-3.4,2.9c-.2.4-.3.4-.4.1s-.1-.7,0-1.4c.1-.7.4-1.4.9-2.2s1.2-1.5,2.2-2.1c1-.6,2.3-1.1,4-1.3,2.8-.2,5.5.1,8.2.7,1.9.4,3.5.6,4.9.6s2.3-.6,2.9-1.7c.1-.2.2-.2.3-.2.1.1.2.2.3.4s0,.5-.1.8c-.8,1.8-2.3,2.8-4.4,3.1-2.1.2-4.5.2-7,0-.4,0-.8-.1-1.2-.1-1.6,1.7-3.1,4.3-4.4,8,.7.1,1.3.2,1.9.2.5,0,1-.2,1.2-.5.1-.1.2-.2.2-.1s.1.2.1.4,0,.4-.1.6-.2.4-.5.6-.8.4-1.4.4-1.3,0-2-.1c-1,2.7-2.2,5.2-3.6,7.4s-3.1,3.8-5.2,4.4h0Z"/><path class="cls-3" d="M38.7,29.4c-.7-.1-1.2-.5-1.4-1.1s-.1-1.3.2-2,.7-1.4,1.3-1.9c-.9-.5-1.3-1-1.3-1.7s.2-1.3.6-1.7c.5-.5,1-.6,1.6-.4.3.1.4.4.5.6,0,.3,0,.6-.2.9.5.3.9.8,1.2,1.3s.4,1,.2,1.5c-.3.5-.5,1-.7,1.4s-.2.7,0,.8c.4.1.8-.1,1.3-.7.5-.5.9-1.2,1.3-1.9s.6-1.5.7-2.1c0-.2.1-.3.2-.3s.2,0,.3.1.2.3.1.6c-.2,1.6-.9,3.1-2,4.6s-2.4,2.1-3.9,2h0Z"/><path class="cls-3" d="M45.1,29.4c-1.6,0-2.5-.9-2.5-2.6-.1-1.7.5-3.4,1.6-5s2.7-2.5,4.8-2.5c1,.1,1.6.6,1.7,1.6s-.2,1.8-1,2.6c-.8.8-1.9,1-3.4.6-.2.6-.4,1.2-.4,1.7s.1.8.5.9c.9.2,1.9-.2,3-1.2,1.1-1.1,2-2.4,2.8-3.9.1-.2.2-.3.3-.2s.2.1.3.4c.1.2,0,.4,0,.7-.6,1.3-1.5,2.8-2.8,4.5s-3,2.4-4.9,2.4h0ZM49.4,21c-.5,0-1,.2-1.4.6-.5.4-.9.9-1.2,1.5.6.1,1.1.1,1.5-.1s.8-.5,1-.8.4-.6.4-.9-.1-.3-.3-.3h0Z"/><path class="cls-3" d="M55.7,26.8c-1,1.7-2.2,2.6-3.6,2.6-1.8,0-2.8-.8-2.8-2.5s.6-3.4,1.9-5c1.2-1.7,2.8-2.5,4.8-2.5.7,0,1.1.2,1.4.6.3.4.4.8.5,1.4.3-.3.6-.5.9-.7.4-.2.8-.3,1.1-.3s.5.2.7.4c.1.2.1.4,0,.6-.3.5-.7,1.1-1.1,1.9-.4.8-.7,1.5-.8,2.2s-.1,1.1.2,1.2c.5,0,.9-.3,1.3-.9.4-.6.8-1.2,1.2-1.8.3-.6.7-1,1-1.3s.5-.3.5.1-.3,1.1-.8,2.3-1.2,2.2-2.1,3-1.8,1.2-2.9,1c-.9-.4-1.3-1.1-1.4-2.3h0ZM53.3,26.5c.5-.1,1-.5,1.6-1.2s1.1-1.4,1.6-2.2c.1-.3.3-.5.5-.8.1-.4.1-.6,0-.9,0-.2-.2-.4-.4-.5-.7-.1-1.4.1-2,.7-.6.5-1.1,1.2-1.5,2s-.6,1.5-.6,2c0,.6.3.9.8.9h0Z"/><path class="cls-3" d="M62.1,28.9c-.1.5-.3.8-.7,1-.3.1-.7.1-1-.1-.2-.3-.4-.8-.4-1.5,0-2.5.6-4.8,1.8-6.8,1.1-2,2.2-3.5,3.2-4.3.7-.5,1.2-.8,1.7-.8s.8,0,1,.2.2.4-.1.6c-.5.4-1.1,1.1-1.8,2.1-.7,1-1.3,2.2-2,3.5.9-1.2,1.9-2,2.9-2.4s1.8-.3,2.5.2c.6.6.8,1.2.6,2-.2.8-.7,1.4-1.4,1.9-.7.5-1.4.8-2.2.7.2,1.1.8,1.6,1.8,1.5.6-.1,1.1-.5,1.5-1.1.4-.7.8-1.4,1.2-2.1.3-.7.5-1.2.6-1.4.1-.3.3-.4.5-.4s.3.2.3.5c0,.5-.2,1.4-.7,2.5s-1.1,2.2-1.9,3.2-1.9,1.4-3.3,1.3c-1-.2-1.7-.7-2.1-1.6-.3-.9-.5-1.8-.4-2.7-.8,1.4-1.3,2.7-1.6,4h0ZM67.8,21.5c-.2-.2-.6-.1-1.1.2s-1,.8-1.6,1.4c.2.4.5.5.9.5s.7-.2,1.1-.5c.3-.3.6-.6.8-.9.1-.3.1-.5-.1-.7Z"/><path class="cls-3" d="M71.3,28.9c-1-.2-1.5-1-1.5-2.1-.1-1.2.3-2.5,1-3.8.7-1.4,1.7-2.5,3-3.3.4-.2.8-.3,1.1-.3s.5.2.7.4c.1.2.1.4,0,.6-.2.3-.6.8-.9,1.5s-.7,1.3-1,2-.6,1.3-.7,1.8-.1.8.2.8c.5,0,1.1-.4,1.6-1.1.5-.8,1-1.5,1.4-2.2.5-1.1,1.3-2,2.3-2.7.4-.2.8-.3,1.1-.3s.5.2.7.4.1.4,0,.6c-.3.5-.7,1.1-1.1,1.9s-.7,1.5-.8,2.2-.1,1.1.2,1.2c.4,0,.9-.3,1.3-.9s.8-1.3,1.2-2c.4-.7.6-1.2.7-1.4.1-.3.3-.4.5-.4s.3.2.3.5c0,.5-.3,1.3-.8,2.5s-1.2,2.2-2.1,3c-.8.9-1.8,1.2-2.9,1-.8-.3-1.2-1-1.3-2.2-.5.7-1.1,1.3-1.8,1.7s-1.7.8-2.4.6h0Z"/><path class="cls-3" d="M81.4,29.6c-.3.1-.6,0-.9-.2s-.5-.6-.6-1.1c-.3-3.1.6-5.9,2.9-8.4.6-.5,1.2-.9,1.7-1,.6-.1,1-.1,1.3.1s.3.4.1.7c-1.3,1.4-2.2,3-2.8,4.8.7-1.1,1.5-2.1,2.4-3s1.8-1.5,2.7-1.8c.5-.2,1-.1,1.4.1s.7.6.8,1c.2.4.1.7,0,1v.1c-.2.3-.6.8-1,1.5,1.4-1.8,2.9-3.1,4.6-3.7.5-.2,1-.1,1.4.1s.7.6.8,1c.2.4.1.7,0,1-.1.2-.3.5-.6,1s-.6,1-.9,1.7c-.3.6-.5,1.1-.6,1.6s0,.7.3.8c.4,0,.9-.4,1.4-1.1s.9-1.5,1.3-2.2.6-1.3.7-1.5.2-.3.4-.2.3.3.3.8-.3,1.2-.8,2.4c-.6,1.1-1.2,2.2-2.1,3.1s-1.8,1.4-3,1.4c-.9-.1-1.4-.6-1.6-1.5-.1-.9,0-1.9.4-3.1s.9-2.2,1.6-3.1c-1.2.8-2.3,2-3.2,3.4-.9,1.4-1.4,2.7-1.3,3.7v.1c0,.3-.2.5-.5.6s-.7.1-1.2,0c-.4-.1-.8-.4-1.1-.8-.3-.4-.4-1-.4-1.8.2-1.7.8-3.3,1.8-4.8-1.1,1-2.1,2.2-3.1,3.5-1.2,1.2-1.7,2.2-2,2.9v.2h0c-.1.4-.3.7-.6.7h0Z"/><path class="cls-2" d="M19.17,13.52c.47-.12.99-.01,1.37.29-.49-.04-.9-.13-1.37-.29h0Z"/><path class="cls-5" d="M21.01.93c-.07.87-1.01,1.56-1.87,1.36.54-.61,1.12-1.03,1.87-1.36h0Z"/><path class="cls-3" d="M14.98,9.52c-.69,1.09-1.43,2.14-2.23,3.14-.44.55-.89,1.08-1.35,1.6-.03.03-.06.07-.09.1-.19.69-.63,1.31-1.22,1.71-.08.05-.17.11-.25.15-.2.11-.42.19-.65.21-.2.17-.4.33-.6.49l.09.12c.27.55.43,1.16.35,1.77-.08.6-.44,1.19-.99,1.46-.31.15-.72.18-.95-.06-.02-.02-.04-.04-.05-.06-.11-.16-.15-.36-.18-.55-.03-.19-.06-.39-.09-.58-.04-.27-.08-.54-.12-.81-.03-.22-.07-.44-.1-.65-.03-.19-.06-.41.06-.58.06-.09.15-.15.24-.21.5-.32,1-.64,1.49-.96,0-.13.04-.25.09-.37.04-.1.07-.21.11-.31.21-.61.43-1.21.64-1.82.05-.14.1-.29.22-.37.09-.07.2-.09.31-.11.4-.09.79-.24,1.15-.43-.07-.08-.13-.18-.18-.28-.06-.14-.08-.3-.06-.45.02-.17.09-.33.22-.45.15-.14.36-.19.55-.28.41-.18.75-.49,1.1-.77.1-.08.19-.15.29-.22.23-.16.49-.3.78-.3.24,0,.96,0,1.45-.08Z"/><path class="cls-3" d="M14.12,41.45c-1.37.24-2.8.08-4.12-.35-1.64-.53-3.13-1.45-4.5-2.49-.19-.14-.38-.29-.55-.45-.06-.05-.11-.11-.17-.16.87-2.24,1.54-4.56,1.84-6.93h0c.07-.55.12-1.1.15-1.66.03-.6.04-1.2.06-1.8.01-.46.03-.91.08-1.37.6-.34,1.21-.81,1.8-1.44.17-.38.35-.76.55-1.12.72-1.3,1.64-2.48,2.6-3.62.41-.49.84-.98,1.15-1.54.68-1.2.81-2.62,1.29-3.91.13-.36.3-.71.54-1,.58-.7,1.63-.96,2.47-.63.1.04.2.09.27.17.14.18.07.45,0,.68-.2.62-.32,1.26-.37,1.9,1.84-2.72,3.34-5.7,4.43-8.82.09-.07.19-.13.3-.17.22-.08.49-.07.67.08.31.26.21.74.11,1.13-.41,1.59-.4,3.26-.44,4.91-.02.81-.07,1.68-.48,2.37h.02c-.68,1.1-1.34,2.19-1.83,3.37-.48,1.12-.8,2.29-1.31,3.39-.72,1.55-1.77,2.92-2.52,4.45-1.4,2.88-1.61,6.18-1.77,9.37-.1,1.88-.18,3.75-.27,5.63Z"/><path class="cls-4" d="M23.57,3.47c-.03.07-.06.15-.09.22-.31.73-1.39,1.91-1.39,1.91-.14.44-.28.88-.43,1.32-1.08,3.12-2.59,6.1-4.43,8.82.04-.65.17-1.29.37-1.9.07-.22.15-.49,0-.68-.07-.09-.17-.14-.27-.17-.85-.33-1.89-.07-2.47.63-.25.29-.41.64-.54,1-.48,1.29-.62,2.71-1.29,3.91-.32.56-.74,1.05-1.15,1.54-.7.83-1.38,1.68-1.98,2.59-.22.33-.43.68-.63,1.03-.2.36-.39.74-.55,1.12-.59.63-1.2,1.1-1.8,1.44-1.59.89-3.08.82-3.91.1-.92-.8-1.75-1.74-2.31-2.86-.56-1.13-.84-2.46-.63-3.78.1-.61.36-1.29.9-1.51.38-.16.77-.04,1.15.13.12.05.24.11.36.17.62.28,1.27.46,1.95.54.76-.18,1.5-.47,2.2-.84.07.46.14.92.21,1.39.03.22.07.46.23.62.11.12.26.17.43.18.18,0,.37-.04.53-.12.55-.27.9-.85.99-1.46.09-.6-.07-1.22-.35-1.77l-.09-.12c.2-.16.41-.32.6-.49.22-.02.45-.1.65-.21.72-.38,1.26-1.08,1.47-1.86.03-.03.06-.07.09-.1.47-.52.92-1.05,1.35-1.6.8-1,1.55-2.05,2.23-3.14.92-1.44,1.73-2.96,2.43-4.52h0c-.41-.17-.69-.78-.57-1.25.04-.16.11-.31.2-.45.17-.28.42-.51.68-.7.39-.28.83-.48,1.23-.74.53-.35,1-.83,1.52-1.22.52-.39,1.12-.69,1.73-.63.03,0,.06,0,.08.01.68.1,1.22.68,1.43,1.38.19.66.11,1.4-.14,2.07Z"/><path class="cls-6" d="M22.09,5.6c-.14.44-.28.88-.43,1.32-1.08,3.12-2.59,6.1-4.43,8.82.04-.65.17-1.29.37-1.9.07-.22.15-.49,0-.68-.07-.09-.17-.14-.27-.17-.85-.33-1.89-.07-2.47.63-.25.29-.41.64-.54,1-.48,1.29-.62,2.71-1.29,3.91-.32.56-.74,1.05-1.15,1.54-.7.83-1.38,1.68-1.98,2.59-.22.33-.43.68-.63,1.03-.2.36-.39.74-.55,1.12-.59.63-1.2,1.1-1.8,1.44-1.59.89-3.08.82-3.91.1-.92-.8-1.75-1.74-2.31-2.86-.56-1.13-.84-2.46-.63-3.78.1-.61.36-1.29.9-1.51.38-.16.77-.04,1.15.13h0c-1.29,5.11,2.47,6.45,5.03,6.15.88-.1,1.68-.9,2.4-2.04,1.39-2.18,2.53-5.61,3.56-7.83,1.57-3.39,3.82-1.72,5.02-4.36,1.2-2.64.8-5.05.8-5.05,1.33.71,3.16.41,3.16.41Z"/><path class="cls-6" d="M12.34,13.86c-1.96,1.98-1.63,2.6-3.1,3.34,0,0,.85,3.09-1.75,3.2v-.02c.18,0,.37-.04.53-.12.55-.27.9-.85.99-1.46.09-.6-.07-1.22-.35-1.77l-.09-.12c.2-.16.41-.32.6-.49.22-.02.45-.1.65-.21.72-.38,1.26-1.08,1.47-1.86.03-.03.06-.07.09-.1.47-.52.92-1.05,1.35-1.6.8-1,1.55-2.05,2.23-3.14.92-1.44,1.73-2.96,2.43-4.53,0,0,.08.28.8.24,0,0-3.91,6.64-5.87,8.62Z"/><path class="cls-7" d="M7.77,27.97s-.47,0-.93-.35c.01-.46.03-.91.08-1.37.6-.34,1.21-.81,1.8-1.44,0,0-.71,2.09-.95,3.16Z"/><path class="cls-7" d="M15.19,23.61s.44-2.05,1.23-4.11c.79-2.06.81-3.76.81-3.76,0,0,1.63,1.1,1.98,2.33,0,0-1.04-.16-1.77,1.46-.73,1.62-2.24,4.08-2.24,4.08Z"/><path class="cls-6" d="M23.57,3.47c-.09.14-.19.29-.29.42-.48.67-1.12,1.41-2.03,1.29-.45-.06-.86-.28-1.29-.43-.22-.08-.45-.14-.69-.15-.25,0-.5.03-.75.04-.42.02-.88-.05-1.14-.41-.16-.23-.18-.55-.01-.77.04-.05.09-.1.15-.14.17-.11.37-.09.56,0,.23.1.45.23.68.33.47.2.96.34,1.47.36.44.01.89-.07,1.28-.28.4-.21.7-.55.9-.95.29-.58.32-1.23.2-1.85-.11-.29-.32-.6-.34-.92.68.1,1.22.68,1.43,1.38.19.66.11,1.4-.14,2.07Z"/><path class="cls-2" d="M7.85,27.54c.39-2.82,2.1-5.24,3.87-7.38.45-.54.93-1.05,1.27-1.65.34-.59.46-1.29.68-1.96.34-.99.61-2.05,1.24-2.9.22-.28.52-.51.86-.58-.34.1-.62.34-.82.61-.58.87-.82,1.93-1.13,2.91-.19.67-.31,1.38-.67,2.01-.35.63-.83,1.15-1.27,1.69-1.78,2.13-3.47,4.48-4.03,7.25h0Z"/><path class="cls-2" d="M17.53,14.08c-.29.81-.15,1.69-.3,2.52-.12.85-.37,1.67-.64,2.48-.56,1.6-1.23,3.17-1.44,4.87.02-.42.06-.85.14-1.27.39-2.09,1.42-4.01,1.79-6.1.17-.81.09-1.73.45-2.5h0Z"/><path class="cls-2" d="M17.39,15.88c1.12.4,1.75,1.57,2.1,2.64-.62-.96-1.12-1.99-2.1-2.64h0Z"/><path class="cls-2" d="M17.84,16.14c.31-.75.74-1.46,1.08-2.18.32-.73.29-1.62.74-2.31-.31.77-.22,1.61-.56,2.39-.36.75-.81,1.42-1.27,2.1h0Z"/><path class="cls-2" d="M6.79,30.88c.52.35,1.09.27,1.67.17.61-.06,1.19.16,1.74.35,1.07.46,2.29.52,3.31-.09-.23.18-.49.32-.77.43-.56.2-1.18.25-1.77.11-.84-.19-1.64-.68-2.5-.65-.28,0-.58.09-.88.04-.3-.05-.58-.17-.8-.36h0Z"/><path class="cls-4" d="M17.15,14.91c-.18.35-.43.68-.82.81-.36.12-.75-.01-.98-.3-.1-.13-.17-.28-.21-.43-.08-.24-.07-.49,0-.74.07-.29.23-.66.45-.95.11-.16.23-.3.39-.41.32-.21.72-.17,1.08-.08.17.05.37.1.5.24.13.14.13.33.09.5-.09.47-.28.93-.5,1.35Z"/><path class="cls-4" d="M8.4,19.15c.02.24.03.52-.08.73-.1.2-.31.3-.52.33-.22.04-.48.07-.69-.02-.22-.1-.28-.33-.32-.55-.05-.25-.09-.51-.01-.77.02-.05.04-.1.07-.14,0-.02,0-.05.02-.08.27-.36.76-.45,1.13-.22h0s.06.03.06.06c.02.02.05.03.07.05.17.16.25.38.27.6Z"/><path class="cls-4" d="M10.26,15.11c-.02.14-.06.28-.11.42-.04.1-.07.21-.13.3,0,.01-.01.02-.02.03,0,.01,0,.02,0,.03-.04.09-.11.13-.2.14-.11.04-.24,0-.35,0-.07,0-.14,0-.21-.01-.16,0-.32-.01-.48-.03-.13-.01-.24-.05-.3-.18-.04-.09-.03-.19-.01-.29.03-.13.07-.26.11-.39.08-.24.2-.48.38-.67.32-.33.91-.42,1.2,0,.13.19.16.44.13.67Z"/><path class="cls-4" d="M12.65,10.96c-.1.22-.21.45-.36.63-.12.16-.29.24-.49.2-.21-.04-.38-.17-.6-.21-.2-.04-.41-.02-.61.04.02-.17.09-.33.22-.45.15-.14.36-.19.55-.28.41-.18.75-.49,1.1-.77.13.04.24.13.28.27.06.19-.02.39-.09.56Z"/><path class="cls-2" d="M10.83,12.37c.34.11.67.13,1.02.16.35.03.68.1,1.02-.03-.39.43-1.65.25-2.04-.14h0Z"/><path class="cls-2" d="M9.15,13.24c-.17.65-.36,1.28-.56,1.92l-.15.48c-.05.15-.06.25.07.35.83.62,1.9-.13,2.37-.87.35-.54.48-1.24.29-1.88.44.96-.02,2.11-.82,2.73-.53.44-1.38.65-1.96.16-.07-.06-.15-.15-.16-.27-.01-.11.02-.21.05-.28l.17-.47c.23-.63.45-1.25.7-1.87h0Z"/><path class="cls-2" d="M6.6,17.98c.25.57.24,1.26.36,1.85.22.65,1.07.32,1.44-.03.46-.4.66-1.03.54-1.63-.09-.61-.29-1.24-.76-1.67.53.38.78,1.03.91,1.65.17.64-.06,1.37-.56,1.81-.44.44-1.51.73-1.72-.08-.1-.63-.03-1.27-.21-1.89h0Z"/><path class="cls-5" d="M5.4,19.62c.24.88,1.09,1.53,1.94,1.47,1.88-.12,1.92-2,2.17-3.46.11-.66.54-1.13,1.27-.91.23.05.3.04.4-.03.25-.23.32-.75.45-1.09.93-2.71,3.59-4.15,5.01-6.53.48-.76.87-1.58,1.18-2.44-.27,1.35-.85,2.65-1.64,3.78-.79,1.12-1.81,2.08-2.65,3.13-.56.69-1.05,1.43-1.31,2.25-.19.59-.33,1.47-1.12,1.56-.26.03-.49-.08-.69-.08-.06,0-.09.01-.13.05-.19.15-.26.68-.34,1.11-.16.91-.37,1.97-1.19,2.56-1.26.94-3.13.22-3.33-1.35h0Z"/><path class="cls-3" d="M4.28,19.31c.95,1.11,1.65,2.71,1.17,4.16-.1-1.48-.72-2.77-1.17-4.16h0Z"/></g></g></svg>