<?xml version="1.0" encoding="UTF-8"?><svg xmlns="http://www.w3.org/2000/svg" width="18.26" height="31.87" viewBox="0 0 18.26 31.87"><g isolation="isolate"><g id="Layer_1"><path d="M10.83,31.78c-1.05.18-2.15.06-3.16-.27-1.26-.41-2.4-1.11-3.45-1.91-.14-.11-.29-.22-.42-.34-.04-.04-.09-.08-.13-.12.67-1.72,1.18-3.49,1.41-5.31h0c.05-.42.09-.85.12-1.27.03-.46.03-.92.05-1.38.01-.35.03-.7.06-1.05.46-.26.93-.62,1.38-1.1.13-.29.27-.58.42-.86.55-1,1.26-1.9,1.99-2.77.32-.38.64-.75.88-1.18.52-.92.62-2.01.99-3,.1-.28.23-.54.42-.77.45-.54,1.25-.74,1.9-.48.08.03.15.07.2.13.11.14.05.35,0,.52-.15.47-.25.96-.28,1.46,1.41-2.09,2.56-4.37,3.39-6.76.07-.05.15-.1.23-.13.17-.06.37-.06.51.06.24.2.16.57.08.87-.31,1.22-.3,2.5-.33,3.76-.01.62-.06,1.29-.37,1.81h.01c-.52.84-1.02,1.68-1.41,2.58-.36.86-.62,1.76-1.01,2.6-.55,1.19-1.36,2.24-1.93,3.41-1.07,2.21-1.23,4.73-1.36,7.19-.07,1.44-.14,2.88-.21,4.31Z" fill="#f880b1" stroke-width="0"/><path d="M5.96,21.45s-.36,0-.71-.27c.01-.35.03-.7.06-1.05.46-.26.93-.62,1.38-1.1,0,0-.55,1.6-.73,2.42Z" mix-blend-mode="soft-light" opacity=".3" stroke-width="0"/><path d="M11.65,18.1s.34-1.57.94-3.15c.61-1.58.62-2.88.62-2.88,0,0,1.25.84,1.51,1.78,0,0-.8-.12-1.36,1.12-.56,1.24-1.72,3.13-1.72,3.13Z" mix-blend-mode="soft-light" opacity=".3" stroke-width="0"/><path d="M6.02,21.11c.3-2.16,1.61-4.01,2.97-5.66.34-.42.71-.81.97-1.27.26-.46.35-.99.52-1.51.26-.76.47-1.57.95-2.23.17-.21.4-.39.66-.45-.26.08-.47.26-.63.47-.45.67-.63,1.48-.87,2.23-.15.51-.24,1.05-.51,1.54-.27.48-.64.88-.98,1.3-1.36,1.64-2.66,3.43-3.09,5.56h0Z" fill="#e2428a" stroke-width="0"/><path d="M13.44,10.8c-.22.62-.12,1.29-.23,1.94-.09.65-.29,1.28-.49,1.9-.43,1.23-.95,2.43-1.11,3.73.01-.33.05-.65.11-.97.3-1.6,1.09-3.07,1.37-4.68.13-.62.07-1.33.34-1.92h0Z" fill="#e2428a" stroke-width="0"/><path d="M13.33,12.17c.86.3,1.34,1.2,1.61,2.02-.48-.74-.86-1.52-1.61-2.02h0Z" fill="#e2428a" stroke-width="0"/><path d="M13.68,12.37c.24-.57.57-1.12.83-1.67.24-.56.22-1.24.57-1.77-.24.59-.17,1.24-.43,1.83-.28.57-.62,1.09-.97,1.61h0Z" fill="#e2428a" stroke-width="0"/><path d="M14.7,10.36c.36-.09.76,0,1.05.23-.37-.03-.69-.1-1.05-.23h0Z" fill="#e2428a" stroke-width="0"/><path d="M5.21,23.67c.4.27.83.21,1.28.13.47-.04.92.12,1.33.27.82.35,1.76.4,2.54-.07-.18.14-.38.24-.59.33-.43.15-.91.19-1.35.09-.65-.14-1.26-.52-1.92-.5-.21,0-.44.07-.68.03-.23-.04-.45-.13-.62-.28h0Z" fill="#e2428a" stroke-width="0"/><path d="M13.15,11.43c-.14.27-.33.52-.63.62-.28.09-.57,0-.75-.23-.08-.1-.13-.21-.16-.33-.06-.18-.05-.38,0-.57.05-.23.17-.51.34-.73.08-.12.18-.23.3-.31.25-.16.56-.13.83-.06.13.04.29.08.38.19.1.11.1.25.07.39-.07.36-.21.71-.38,1.03Z" fill="#fda9ca" stroke-width="0"/><path d="M11.48,7.3c-.53.84-1.1,1.64-1.71,2.41-.33.42-.68.83-1.04,1.22-.02.03-.05.05-.07.08-.14.53-.48,1-.93,1.31-.06.04-.13.08-.2.12-.15.08-.32.15-.5.16-.15.13-.3.25-.46.37l.07.09c.21.42.33.89.26,1.35-.07.46-.34.91-.76,1.12-.23.12-.55.14-.73-.05-.01-.02-.03-.03-.04-.05-.09-.12-.11-.28-.14-.43-.02-.15-.05-.3-.07-.45-.03-.21-.06-.41-.09-.62-.03-.17-.05-.33-.08-.5-.02-.15-.04-.32.04-.44.05-.07.12-.12.19-.16.38-.25.76-.49,1.14-.74,0-.1.03-.19.07-.28.03-.08.06-.16.08-.24.16-.47.33-.93.49-1.4.04-.11.08-.22.17-.29.07-.05.15-.07.24-.09.31-.07.6-.18.88-.33-.06-.06-.1-.14-.14-.22-.05-.11-.06-.23-.05-.35.02-.13.07-.25.17-.34.12-.11.28-.15.42-.21.32-.14.57-.37.84-.59.07-.06.15-.12.22-.17.18-.13.38-.23.6-.23.18,0,.74,0,1.11-.06Z" fill="#f880b1" stroke-width="0"/><path d="M6.44,14.68c.02.18.03.4-.06.56-.08.16-.24.23-.4.25-.17.03-.37.05-.53-.02-.17-.08-.22-.25-.25-.42-.04-.19-.07-.39,0-.59.01-.04.03-.07.05-.11,0-.02,0-.04.01-.06.21-.28.58-.35.87-.17h0s.04.02.05.04c.02.01.04.02.05.04.13.12.19.29.21.46Z" fill="#fda9ca" stroke-width="0"/><path d="M7.87,11.58c-.02.11-.05.21-.08.32-.03.08-.05.16-.1.23,0,0,0,.02-.01.02,0,0,0,.01,0,.02-.03.07-.09.1-.15.11-.09.03-.18,0-.27,0-.05,0-.11,0-.16-.01-.12,0-.25-.01-.37-.02-.1,0-.19-.04-.23-.14-.03-.07-.02-.15,0-.22.02-.1.05-.2.09-.3.06-.19.15-.37.29-.51.24-.25.69-.33.92,0,.1.15.12.34.1.51Z" fill="#fda9ca" stroke-width="0"/><path d="M9.7,8.4c-.07.17-.16.34-.27.49-.09.12-.22.19-.38.16-.16-.03-.29-.13-.46-.16-.16-.03-.32-.02-.47.03.02-.13.07-.25.17-.34.12-.11.28-.15.42-.21.32-.14.57-.37.84-.59.1.03.18.1.21.21.05.15-.01.3-.07.43Z" fill="#fda9ca" stroke-width="0"/><path d="M8.3,9.49c.26.09.52.1.78.12.27.02.52.08.78-.02-.3.33-1.27.19-1.56-.1h0Z" fill="#e2428a" stroke-width="0"/><path d="M7.01,10.15c-.13.49-.28.98-.43,1.47l-.11.37c-.04.11-.05.19.05.27.63.48,1.46-.1,1.82-.67.27-.41.37-.95.22-1.44.34.73-.02,1.62-.63,2.09-.41.34-1.06.49-1.5.12-.05-.05-.11-.12-.12-.21,0-.09.02-.16.04-.22l.13-.36c.17-.48.35-.96.54-1.43h0Z" fill="#e2428a" stroke-width="0"/><path d="M5.06,13.79c.19.44.18.97.27,1.42.17.5.82.25,1.1-.02.35-.31.51-.79.42-1.25-.07-.47-.23-.95-.58-1.28.41.29.6.79.7,1.26.13.49-.05,1.05-.43,1.39-.34.34-1.16.56-1.32-.06-.08-.49-.03-.97-.16-1.45h0Z" fill="#e2428a" stroke-width="0"/><path d="M18.07,2.66c-.02.06-.04.11-.07.17-.24.56-1.07,1.47-1.07,1.47-.1.34-.21.68-.33,1.01-.83,2.39-1.98,4.68-3.39,6.76.03-.5.13-.99.28-1.46.05-.17.11-.38,0-.52-.05-.07-.13-.1-.2-.13-.65-.25-1.45-.05-1.9.48-.19.22-.31.49-.42.77-.37.99-.47,2.08-.99,3-.24.43-.57.8-.88,1.18-.54.64-1.06,1.29-1.51,1.99-.17.25-.33.52-.48.79-.15.28-.3.57-.42.86-.45.48-.92.84-1.38,1.1-1.22.68-2.36.63-3,.08-.71-.61-1.34-1.33-1.77-2.2-.43-.87-.64-1.89-.48-2.9.07-.47.28-.99.69-1.16.29-.12.59-.03.88.1.09.04.19.09.28.13.47.22.98.36,1.49.41.58-.14,1.15-.36,1.69-.65.05.35.11.71.16,1.06.03.17.06.35.18.47.09.09.2.13.33.14.14,0,.28-.03.4-.09.42-.21.69-.65.76-1.12.07-.46-.05-.94-.26-1.35l-.07-.09c.16-.12.31-.25.46-.37.17-.01.34-.08.5-.16.55-.29.96-.83,1.13-1.43.03-.03.05-.05.07-.08.36-.4.7-.8,1.04-1.22.61-.77,1.18-1.57,1.71-2.41.7-1.11,1.33-2.27,1.86-3.47h0c-.32-.13-.53-.59-.44-.96.03-.12.09-.24.15-.35.13-.21.32-.39.52-.53.3-.21.64-.37.95-.57.41-.27.77-.64,1.16-.93.4-.3.86-.53,1.32-.49.02,0,.04,0,.06,0,.52.08.94.52,1.09,1.06.15.5.08,1.07-.11,1.59Z" fill="#fda9ca" stroke-width="0"/><path d="M16.94,4.3c-.1.34-.21.68-.33,1.01-.83,2.39-1.98,4.68-3.39,6.76.03-.5.13-.99.28-1.46.05-.17.11-.38,0-.52-.05-.07-.13-.1-.2-.13-.65-.25-1.45-.05-1.9.48-.19.22-.31.49-.42.77-.37.99-.47,2.08-.99,3-.24.43-.57.8-.88,1.18-.54.64-1.06,1.29-1.51,1.99-.17.25-.33.52-.48.79-.15.28-.3.57-.42.86-.45.48-.92.84-1.38,1.1-1.22.68-2.36.63-3,.08-.71-.61-1.34-1.33-1.77-2.2-.43-.87-.64-1.89-.48-2.9.07-.47.28-.99.69-1.16.29-.12.59-.03.88.1h0c-.99,3.92,1.89,4.95,3.86,4.72.67-.08,1.28-.69,1.84-1.57,1.07-1.67,1.94-4.3,2.73-6,1.2-2.6,2.93-1.32,3.85-3.34.92-2.02.61-3.87.61-3.87,1.02.55,2.42.31,2.42.31Z" mix-blend-mode="soft-light" opacity=".3" stroke-width="0"/><path d="M9.46,10.62c-1.5,1.52-1.25,1.99-2.38,2.56,0,0,.65,2.37-1.34,2.45v-.02c.14,0,.28-.03.4-.09.42-.21.69-.65.76-1.12.07-.46-.05-.94-.26-1.35l-.07-.09c.16-.12.31-.25.46-.37.17-.01.34-.08.5-.16.55-.29.96-.83,1.13-1.43.03-.03.05-.05.07-.08.36-.4.7-.8,1.04-1.22.61-.77,1.18-1.57,1.71-2.41.7-1.11,1.33-2.27,1.86-3.47,0,0,.06.21.61.18,0,0-3,5.09-4.5,6.61Z" mix-blend-mode="soft-light" opacity=".3" stroke-width="0"/><path d="M18.07,2.66c-.07.11-.14.22-.22.33-.37.51-.86,1.08-1.56.99-.35-.05-.66-.21-.99-.33-.17-.06-.35-.11-.53-.11-.19,0-.38.02-.57.03-.32.02-.68-.04-.88-.32-.12-.18-.13-.42-.01-.59.03-.04.07-.08.12-.11.13-.08.29-.07.43,0,.18.08.35.18.52.26.36.15.74.26,1.13.27.34,0,.68-.05.98-.21.3-.16.54-.42.69-.73.22-.44.25-.94.15-1.42-.08-.23-.24-.46-.26-.7.52.08.94.52,1.09,1.06.15.5.08,1.07-.11,1.59Z" mix-blend-mode="soft-light" opacity=".3" stroke-width="0"/><path d="M16.11.72c-.06.67-.78,1.2-1.43,1.04.42-.47.86-.79,1.43-1.04h0Z" fill="#fff" mix-blend-mode="soft-light" opacity=".5" stroke-width="0"/><path d="M3.28,14.8c.73.85,1.27,2.07.9,3.19-.08-1.13-.55-2.13-.9-3.19h0Z" fill="#f880b1" stroke-width="0"/><path d="M4.14,15.04c.18.68.84,1.17,1.49,1.13,1.45-.09,1.47-1.54,1.66-2.65.09-.5.41-.87.98-.7.18.04.23.03.31-.03.2-.18.25-.58.34-.84.71-2.08,2.75-3.18,3.84-5,.37-.58.67-1.21.91-1.87-.21,1.03-.65,2.03-1.26,2.89-.61.86-1.39,1.6-2.04,2.4-.43.53-.81,1.1-1.01,1.73-.15.45-.26,1.13-.86,1.19-.2.02-.37-.06-.53-.06-.04,0-.07.01-.1.04-.15.12-.2.52-.26.85-.12.7-.29,1.51-.91,1.97-.96.72-2.4.17-2.56-1.04h0Z" fill="#fff" mix-blend-mode="soft-light" opacity=".5" stroke-width="0"/></g></g></svg>