<?xml version="1.0" encoding="UTF-8"?>
<svg id="Layer_1" data-name="Layer 1" xmlns="http://www.w3.org/2000/svg" viewBox="0 0 180 180">
  <defs>
    <style>
      .cls-1 {
        fill: #0058e6;
        stroke-width: 0px;
      }
    </style>
  </defs>
  <path class="cls-1" d="M115.2,71.52l-.9-.9-4.02-4.02-16.27-16.27.9-.9c.34-.34.7-.66,1.08-.95,2.01-1.57,4.47-2.42,7.05-2.42,3.07,0,5.96,1.2,8.14,3.37,4.14,4.14,4.46,10.68.95,15.19l4.04,4.04c5.72-6.74,5.39-16.88-.97-23.25-3.24-3.24-7.56-5.03-12.15-5.03-4.11,0-8,1.43-11.09,4.07-.36.3-.72.63-1.06.97l-.9.9-.9-.9c-6.7-6.7-17.6-6.7-24.31,0-6.7,6.71-6.7,17.61,0,24.31l.9.9,4.02,4.02,16.27,16.27-.9.9c-.35.35-.7.66-1.08.95-4.51,3.5-11.05,3.18-15.19-.95-2.17-2.18-3.37-5.06-3.37-8.14,0-2.59.85-5.05,2.42-7.05l-4.04-4.04c-2.63,3.1-4.06,6.99-4.06,11.1,0,4.59,1.79,8.91,5.03,12.15,3.36,3.36,7.76,5.03,12.16,5.03,3.95,0,7.9-1.35,11.09-4.06.37-.3.72-.63,1.07-.97l.9-.9.9.9c3.24,3.25,7.56,5.04,12.15,5.04s8.91-1.79,12.15-5.04c3.25-3.24,5.04-7.56,5.04-12.15s-1.79-8.91-5.04-12.15ZM68.81,65.71c-4.49-4.49-4.49-11.78,0-16.27,2.24-2.24,5.19-3.36,8.14-3.36s5.89,1.12,8.14,3.36l.9.9-16.27,16.27-.9-.9ZM73.73,70.62l1.92-1.92,12.44-12.44,1.92-1.92,16.27,16.27-1.92,1.92-12.44,12.44-1.92,1.92-16.27-16.27ZM111.19,91.81c-2.18,2.17-5.06,3.37-8.14,3.37s-5.96-1.2-8.14-3.37l-.9-.9,16.27-16.27.9.9c2.17,2.17,3.37,5.06,3.37,8.14s-1.2,5.96-3.37,8.14Z"/>
  <g>
    <path class="cls-1" d="M19.16,134.22v-16.96l-4.62,16.96h-5.14l-4.59-16.89v16.89H0v-24.75h7.6l4.47,18.15,4.47-18.15h7.46v24.75h-4.85Z"/>
    <path class="cls-1" d="M37.69,131.8c-.67,1.64-2.68,2.61-4.96,2.61-3.84,0-6.71-2.61-6.71-6.64v-11.89h4.85v11.18c0,2.27,1.04,3.43,3.09,3.43,2.2,0,3.73-1.45,3.73-3.43v-11.18h4.85v18.82c0,5.18-3.73,8.2-8.42,8.2-5.37,0-8.09-2.94-8.09-7.68h4.51c0,2.16,1.27,3.5,3.8,3.5,1.75,0,3.35-1.53,3.35-3.95v-2.98Z"/>
    <path class="cls-1" d="M63.78,134.22v-16.96l-4.62,16.96h-5.14l-4.59-16.89v16.89h-4.81v-24.75h7.6l4.47,18.15,4.47-18.15h7.45v24.75h-4.85Z"/>
    <path class="cls-1" d="M75.07,126.32c.15,2.76,1.71,4.55,4.1,4.55,1.57,0,2.94-.78,3.28-2.05h4.99c-1.12,3.76-4.14,5.89-8.05,5.89-6.11,0-9.17-3.36-9.17-9.99,0-5.67,3.24-9.32,8.87-9.32s8.61,3.65,8.61,10.92h-12.64ZM82.71,123.26c-.07-2.72-1.86-4.03-3.76-4.03s-3.54,1.49-3.73,4.03h7.49Z"/>
    <path class="cls-1" d="M102.1,134.22l-.04-2.24c-1.16,1.86-2.87,2.72-5.11,2.72-4.62,0-7.94-3.65-7.94-9.84,0-5.55,2.8-9.47,7.53-9.47,2.27,0,4.06.93,5.44,2.87v-9.09h4.77v25.05h-4.66ZM102.17,125.5c0-3.99-1.38-5.96-4.06-5.96-2.83,0-4.18,1.9-4.18,5.67,0,3.28,1.71,5.55,4.14,5.55s4.1-2.16,4.1-5.26Z"/>
    <path class="cls-1" d="M108.99,113.68v-4.51h4.85v4.51h-4.85ZM108.99,134.22v-18.34h4.85v18.34h-4.85Z"/>
    <path class="cls-1" d="M132.55,127.59c-.52,4.25-3.99,7.12-8.42,7.12-4.99,0-8.42-3.32-8.42-9.88s3.43-9.43,8.57-9.43c4.77,0,8.01,2.72,8.31,7.04h-4.88c-.26-1.9-1.64-3.02-3.47-3.02-2.05,0-3.73,1.3-3.73,5.29s1.68,5.93,3.58,5.93,3.39-1.08,3.58-3.06h4.88Z"/>
    <path class="cls-1" d="M145.45,134.22c-.15-.45-.26-1.08-.3-1.64-1.16,1.27-3.09,2.13-5.55,2.13-4.17,0-6.11-2.05-6.11-5.03,0-5.29,3.54-5.89,8.42-6.56,2.42-.34,3.09-.82,3.09-2.09,0-1.19-1.19-1.9-3.09-1.9-2.2,0-3.09,1.08-3.32,2.72h-4.51c.07-3.8,2.16-6.45,8.05-6.45s7.83,2.61,7.83,7.23v11.59h-4.51ZM145.11,125.24c-.48.48-1.34.75-3.13,1.08-2.76.52-3.65,1.3-3.65,2.87,0,1.38.82,2.05,2.35,2.05,2.5,0,4.36-1.83,4.4-3.99l.04-2.01Z"/>
    <path class="cls-1" d="M152.08,134.22v-18.34h4.55v2.2c1.6-2.46,3.47-2.68,5.44-2.68h.63v4.96c-.45-.07-.89-.11-1.34-.11-2.98,0-4.44,1.49-4.44,4.44v9.54h-4.85Z"/>
    <path class="cls-1" d="M167.36,126.32c.15,2.76,1.71,4.55,4.1,4.55,1.57,0,2.94-.78,3.28-2.05h4.99c-1.12,3.76-4.14,5.89-8.05,5.89-6.11,0-9.17-3.36-9.17-9.99,0-5.67,3.24-9.32,8.87-9.32s8.61,3.65,8.61,10.92h-12.64ZM175,123.26c-.07-2.72-1.86-4.03-3.76-4.03s-3.54,1.49-3.73,4.03h7.49Z"/>
  </g>
</svg>