<?xml version="1.0" encoding="UTF-8"?>
<svg id="Layer_1" data-name="Layer 1" xmlns="http://www.w3.org/2000/svg" viewBox="0 0 38.92 44">
  <defs>
    <style>
      .cls-1 {
        fill: #e2f2fc;
        stroke-width: 0px;
      }
    </style>
  </defs>
  <path class="cls-1" d="M11.85,20.31c-4.67,0-8.46-3.79-8.46-8.46v-6.77c0-.93.76-1.69,1.69-1.69h1.69c.93,0,1.69-.76,1.69-1.69s-.76-1.69-1.69-1.69h-1.69C2.27,0,0,2.27,0,5.08v6.77c0,3.88,1.91,7.51,5.11,9.71,3.06,2.69,4.88,6.52,5.04,10.59,0,6.54,5.3,11.85,11.85,11.85s11.85-5.3,11.85-11.85v-1.93c3.62-.93,5.8-4.63,4.86-8.25-.93-3.62-4.63-5.8-8.25-4.86-3.62.93-5.8,4.63-4.86,8.25.62,2.38,2.48,4.25,4.86,4.86v1.93c0,4.67-3.79,8.46-8.46,8.46s-8.46-3.79-8.46-8.46c.17-4.08,2-7.91,5.08-10.59,3.18-2.21,5.08-5.84,5.08-9.71v-6.77c0-2.8-2.27-5.08-5.08-5.08h-1.69c-.93,0-1.69.76-1.69,1.69s.76,1.69,1.69,1.69h1.69c.93,0,1.69.76,1.69,1.69v6.77c0,4.67-3.79,8.46-8.46,8.46M32.15,27.08c-1.87,0-3.38-1.52-3.38-3.38s1.52-3.38,3.38-3.38,3.38,1.52,3.38,3.38-1.52,3.38-3.38,3.38"/>
</svg>