<?xml version="1.0" encoding="UTF-8"?>
<svg id="Layer_1" data-name="Layer 1" xmlns="http://www.w3.org/2000/svg" viewBox="0 0 24 24">
  <defs>
    <style>
      .cls-1 {
        fill: #0058e6;
      }

      .cls-1, .cls-2 {
        stroke-width: 0px;
      }

      .cls-2 {
        fill: #fff;
      }
    </style>
  </defs>
  <rect class="cls-1" x="0" y="0" width="24" height="24" rx="12" ry="12"/>
  <path class="cls-2" d="M10.57,16.29c-.39,0-.73-.14-1.01-.42-.28-.28-.42-.62-.42-1.01v-.89c-.68-.46-1.21-1.06-1.58-1.79s-.56-1.5-.56-2.32c0-1.39.49-2.57,1.46-3.54.97-.97,2.15-1.46,3.54-1.46,1.39,0,2.57.48,3.54,1.46.97.97,1.46,2.15,1.46,3.54,0,.82-.19,1.59-.56,2.31-.38.72-.9,1.32-1.58,1.79v.89c0,.39-.14.73-.42,1.01-.28.28-.62.42-1.01.42h-2.86ZM10.57,19.14c-.2,0-.37-.07-.51-.21-.14-.14-.21-.31-.21-.51v-.71h4.29v.71c0,.2-.07.37-.21.51-.14.14-.31.21-.51.21h-2.86Z"/>
</svg>